<?xml version="1.0" standalone="no"?>
<!DOCTYPE svg PUBLIC "-//W3C//DTD SVG 20010904//EN"
 "http://www.w3.org/TR/2001/REC-SVG-20010904/DTD/svg10.dtd">
<svg version="1.0" xmlns="http://www.w3.org/2000/svg"
 width="260.000000pt" height="260.000000pt" viewBox="0 0 260.000000 260.000000"
 preserveAspectRatio="xMidYMid meet">
<metadata>
Created by potrace 1.11, written by Peter Selinger 2001-2013
</metadata>
<g transform="translate(0.000000,260.000000) scale(0.100000,-0.100000)"
fill="#000000" stroke="none">
<path d="M262 1922 c-12 -4 -38 -19 -57 -35 -64 -51 -67 -76 -63 -574 3 -434
3 -438 26 -485 17 -35 34 -52 66 -67 39 -20 60 -21 292 -21 275 0 308 5 417
63 105 55 193 185 233 342 24 96 25 286 1 375 -51 190 -182 323 -377 385 -44
15 -99 19 -285 21 -126 2 -240 0 -253 -4z m381 -256 c78 -33 114 -98 129 -233
10 -99 0 -239 -24 -316 -24 -78 -100 -137 -177 -137 l-21 0 0 350 0 350 30 0
c17 0 45 -6 63 -14z"/>
<path d="M1770 1914 c-168 -44 -298 -162 -368 -333 -44 -106 -55 -208 -48
-426 8 -276 27 -350 99 -396 27 -17 45 -20 118 -17 135 6 173 43 185 180 l7
78 137 0 138 0 3 -83 c4 -72 8 -88 31 -118 32 -43 80 -59 171 -59 79 0 105 10
135 55 36 52 54 137 61 295 12 279 -7 417 -79 562 -56 114 -182 219 -308 258
-77 24 -201 26 -282 4z m218 -299 c40 -34 52 -88 52 -242 l0 -128 -137 1 -138
2 -3 148 c-3 160 4 191 46 224 39 31 141 28 180 -5z"/>
</g>
</svg>
